<svg width="32" height="32" viewBox="0 0 32 32" fill="none" xmlns="http://www.w3.org/2000/svg">
<g clip-path="url(#clip0_898_9415)">
<path d="M4.63648 15.2685C4.38651 15.5185 4.24609 15.8576 4.24609 16.2111C4.24609 16.5647 4.38651 16.9038 4.63648 17.1538L12.1791 24.6965C12.3021 24.8238 12.4493 24.9254 12.6119 24.9953C12.7746 25.0651 12.9496 25.1019 13.1266 25.1035C13.3036 25.105 13.4792 25.0713 13.6431 25.0042C13.8069 24.9372 13.9558 24.8382 14.081 24.713C14.2062 24.5878 14.3052 24.4389 14.3722 24.2751C14.4393 24.1112 14.473 23.9356 14.4715 23.7586C14.4699 23.5816 14.4332 23.4066 14.3633 23.2439C14.2934 23.0813 14.1918 22.9341 14.0645 22.8111L8.79781 17.5445H26.4551C26.8088 17.5445 27.1479 17.404 27.398 17.1539C27.648 16.9039 27.7885 16.5648 27.7885 16.2111C27.7885 15.8575 27.648 15.5184 27.398 15.2683C27.1479 15.0183 26.8088 14.8778 26.4551 14.8778L8.79781 14.8778L14.0645 9.61113C14.3074 9.35966 14.4417 9.02286 14.4387 8.67326C14.4357 8.32367 14.2954 7.98925 14.0482 7.74204C13.801 7.49483 13.4666 7.3546 13.117 7.35156C12.7674 7.34853 12.4306 7.48292 12.1791 7.7258L4.63648 15.2685Z" fill="#5B89F8"/>
</g>
<defs>
<clipPath id="clip0_898_9415">
<rect width="32" height="32" fill="white" transform="matrix(-1 0 0 1 32 0)"/>
</clipPath>
</defs>
</svg>
