<svg width="56" height="57" viewBox="0 0 56 57" fill="none" xmlns="http://www.w3.org/2000/svg">
<mask id="path-1-inside-1_927_9240" fill="white">
<path d="M34.9999 33.1673C28.7699 33.1673 16.3333 36.2707 16.3333 42.5007V47.1673H53.6666V42.5007C53.6666 36.2707 41.2299 33.1673 34.9999 33.1673ZM13.9999 23.834V16.834H9.33325V23.834H2.33325V28.5007H9.33325V35.5007H13.9999V28.5007H20.9999V23.834M34.9999 28.5007C37.4753 28.5007 39.8492 27.5173 41.5996 25.767C43.3499 24.0166 44.3333 21.6427 44.3333 19.1673C44.3333 16.692 43.3499 14.318 41.5996 12.5677C39.8492 10.8173 37.4753 9.83398 34.9999 9.83398C32.5246 9.83398 30.1506 10.8173 28.4003 12.5677C26.6499 14.318 25.6666 16.692 25.6666 19.1673C25.6666 21.6427 26.6499 24.0166 28.4003 25.767C30.1506 27.5173 32.5246 28.5007 34.9999 28.5007Z"/>
</mask>
<path d="M34.9999 33.1673C28.7699 33.1673 16.3333 36.2707 16.3333 42.5007V47.1673H53.6666V42.5007C53.6666 36.2707 41.2299 33.1673 34.9999 33.1673ZM13.9999 23.834V16.834H9.33325V23.834H2.33325V28.5007H9.33325V35.5007H13.9999V28.5007H20.9999V23.834M34.9999 28.5007C37.4753 28.5007 39.8492 27.5173 41.5996 25.767C43.3499 24.0166 44.3333 21.6427 44.3333 19.1673C44.3333 16.692 43.3499 14.318 41.5996 12.5677C39.8492 10.8173 37.4753 9.83398 34.9999 9.83398C32.5246 9.83398 30.1506 10.8173 28.4003 12.5677C26.6499 14.318 25.6666 16.692 25.6666 19.1673C25.6666 21.6427 26.6499 24.0166 28.4003 25.767C30.1506 27.5173 32.5246 28.5007 34.9999 28.5007Z" fill="#C4C8CF"/>
<path d="M16.3333 47.1673H13.9999V49.5007H16.3333V47.1673ZM53.6666 47.1673V49.5007H55.9999V47.1673H53.6666ZM13.9999 16.834H16.3333V14.5007H13.9999V16.834ZM9.33325 16.834V14.5007H6.99992V16.834H9.33325ZM9.33325 23.834V26.1673H11.6666V23.834H9.33325ZM2.33325 23.834V21.5007H-8.15392e-05V23.834H2.33325ZM2.33325 28.5007H-8.15392e-05V30.834H2.33325V28.5007ZM9.33325 28.5007H11.6666V26.1673H9.33325V28.5007ZM9.33325 35.5007H6.99992V37.834H9.33325V35.5007ZM13.9999 35.5007V37.834H16.3333V35.5007H13.9999ZM13.9999 28.5007V26.1673H11.6666V28.5007H13.9999ZM20.9999 28.5007V30.834H23.3333V28.5007H20.9999ZM34.9999 28.5007V30.834V28.5007ZM34.9999 9.83398V7.50065V9.83398ZM25.6666 19.1673H23.3333H25.6666ZM34.9999 30.834C31.5955 30.834 26.6342 31.6637 22.464 33.3312C20.3772 34.1656 18.3417 35.2671 16.7905 36.7001C15.2226 38.1486 13.9999 40.0886 13.9999 42.5007H18.6666C18.6666 41.7977 18.9985 41.0136 19.9572 40.128C20.9326 39.2269 22.3955 38.3845 24.1966 37.6643C27.8023 36.2226 32.1744 35.5007 34.9999 35.5007V30.834ZM13.9999 42.5007V47.1673H18.6666V42.5007H13.9999ZM16.3333 49.5007H53.6666V44.834H16.3333V49.5007ZM55.9999 47.1673V42.5007H51.3333V47.1673H55.9999ZM55.9999 42.5007C55.9999 40.0886 54.7773 38.1486 53.2093 36.7001C51.6582 35.2671 49.6226 34.1656 47.5358 33.3312C43.3657 31.6637 38.4044 30.834 34.9999 30.834V35.5007C37.8255 35.5007 42.1975 36.2226 45.8032 37.6643C47.6043 38.3845 49.0673 39.2269 50.0427 40.128C51.0013 41.0136 51.3333 41.7977 51.3333 42.5007H55.9999ZM16.3333 23.834V16.834H11.6666V23.834H16.3333ZM13.9999 14.5007H9.33325V19.1673H13.9999V14.5007ZM6.99992 16.834V23.834H11.6666V16.834H6.99992ZM9.33325 21.5007H2.33325V26.1673H9.33325V21.5007ZM-8.15392e-05 23.834V28.5007H4.66659V23.834H-8.15392e-05ZM2.33325 30.834H9.33325V26.1673H2.33325V30.834ZM6.99992 28.5007V35.5007H11.6666V28.5007H6.99992ZM9.33325 37.834H13.9999V33.1673H9.33325V37.834ZM16.3333 35.5007V28.5007H11.6666V35.5007H16.3333ZM13.9999 30.834H20.9999V26.1673H13.9999V30.834ZM23.3333 28.5007V23.834H18.6666V28.5007H23.3333ZM34.9999 30.834C38.0941 30.834 41.0616 29.6048 43.2495 27.4169L39.9497 24.1171C38.6369 25.4298 36.8564 26.1673 34.9999 26.1673V30.834ZM43.2495 27.4169C45.4374 25.229 46.6666 22.2615 46.6666 19.1673H41.9999C41.9999 21.0238 41.2624 22.8043 39.9497 24.1171L43.2495 27.4169ZM46.6666 19.1673C46.6666 16.0731 45.4374 13.1057 43.2495 10.9177L39.9497 14.2176C41.2624 15.5303 41.9999 17.3108 41.9999 19.1673H46.6666ZM43.2495 10.9177C41.0616 8.72981 38.0941 7.50065 34.9999 7.50065V12.1673C36.8564 12.1673 38.6369 12.9048 39.9497 14.2176L43.2495 10.9177ZM34.9999 7.50065C31.9057 7.50065 28.9383 8.72981 26.7503 10.9177L30.0502 14.2176C31.3629 12.9048 33.1434 12.1673 34.9999 12.1673V7.50065ZM26.7503 10.9177C24.5624 13.1057 23.3333 16.0731 23.3333 19.1673H27.9999C27.9999 17.3108 28.7374 15.5303 30.0502 14.2176L26.7503 10.9177ZM23.3333 19.1673C23.3333 22.2615 24.5624 25.229 26.7503 27.4169L30.0502 24.1171C28.7374 22.8043 27.9999 21.0238 27.9999 19.1673H23.3333ZM26.7503 27.4169C28.9383 29.6048 31.9057 30.834 34.9999 30.834V26.1673C33.1434 26.1673 31.3629 25.4298 30.0502 24.1171L26.7503 27.4169Z" fill="#C4C8CF" mask="url(#path-1-inside-1_927_9240)"/>
</svg>
