<svg width="56" height="57" viewBox="0 0 56 57" fill="none" xmlns="http://www.w3.org/2000/svg">
<path d="M30.1348 20.3823L30.1467 20.4302L30.1627 20.477L35.7011 36.666H30.5666C29.7934 36.666 29.1666 37.2928 29.1666 38.066V50.666H24.4999V38.066C24.4999 37.2928 23.8731 36.666 23.0999 36.666H17.9654L23.498 20.494C24.0641 18.9998 25.3153 17.9994 26.8333 17.9994C28.4488 17.9994 29.8099 19.0828 30.1348 20.3823ZM17.7541 37.2837L17.7544 37.2828L17.7541 37.2837ZM26.8333 6.33268C27.7615 6.33268 28.6517 6.70143 29.3081 7.35781C29.9645 8.01419 30.3333 8.90443 30.3333 9.83268C30.3333 10.7609 29.9645 11.6512 29.3081 12.3076C28.6517 12.9639 27.7615 13.3327 26.8333 13.3327C25.905 13.3327 25.0148 12.9639 24.3584 12.3076C23.702 11.6512 23.3333 10.7609 23.3333 9.83268C23.3333 8.90442 23.702 8.01419 24.3584 7.35781C25.0148 6.70143 25.905 6.33268 26.8333 6.33268ZM44.3333 28.4994C44.3333 27.5711 44.702 26.6809 45.3584 26.0245C46.0148 25.3681 46.905 24.9993 47.8333 24.9993C48.7615 24.9993 49.6517 25.3681 50.3081 26.0245C50.9645 26.6809 51.3333 27.5711 51.3333 28.4994C51.3333 29.4276 50.9645 30.3178 50.3081 30.9742C49.6517 31.6306 48.7615 31.9994 47.8333 31.9994C46.905 31.9994 46.0148 31.6306 45.3584 30.9742C44.702 30.3178 44.3333 29.4276 44.3333 28.4994ZM41.9999 43.666V36.666H53.6666V43.666H51.5666C50.7934 43.666 50.1666 44.2928 50.1666 45.066V50.666H45.4999V45.066C45.4999 44.2928 44.8731 43.666 44.0999 43.666H41.9999Z" fill="#ECECEE" stroke="#ECECEE" stroke-width="2.33333"/>
<path d="M7.29167 28.209V23.834H4.375V28.209H0V31.1257H4.375V35.5007H7.29167V31.1257H11.6667V28.209" fill="#ECECEE"/>
</svg>
