<svg width="56" height="57" viewBox="0 0 56 57" fill="none" xmlns="http://www.w3.org/2000/svg">
<path d="M27.9998 5.16797C15.1128 5.16797 4.6665 15.6143 4.6665 28.5013C4.6665 41.3883 15.1128 51.8346 27.9998 51.8346C40.8868 51.8346 51.3332 41.3883 51.3332 28.5013C51.3332 15.6143 40.8868 5.16797 27.9998 5.16797Z" stroke="#C4C8CF" stroke-width="3.5" stroke-linecap="round" stroke-linejoin="round"/>
<path d="M9.96558 43.3093C9.96558 43.3093 15.1666 36.6686 27.9999 36.6686C40.8332 36.6686 46.0366 43.3093 46.0366 43.3093M27.9999 28.502C29.8564 28.502 31.6369 27.7645 32.9497 26.4517C34.2624 25.1389 34.9999 23.3585 34.9999 21.502C34.9999 19.6454 34.2624 17.865 32.9497 16.5522C31.6369 15.2395 29.8564 14.502 27.9999 14.502C26.1434 14.502 24.3629 15.2395 23.0502 16.5522C21.7374 17.865 20.9999 19.6454 20.9999 21.502C20.9999 23.3585 21.7374 25.1389 23.0502 26.4517C24.3629 27.7645 26.1434 28.502 27.9999 28.502Z" fill="#C4C8CF"/>
<path d="M9.96558 43.3093C9.96558 43.3093 15.1666 36.6686 27.9999 36.6686C40.8332 36.6686 46.0366 43.3093 46.0366 43.3093M27.9999 28.502C29.8564 28.502 31.6369 27.7645 32.9497 26.4517C34.2624 25.1389 34.9999 23.3585 34.9999 21.502C34.9999 19.6454 34.2624 17.865 32.9497 16.5522C31.6369 15.2395 29.8564 14.502 27.9999 14.502C26.1434 14.502 24.3629 15.2395 23.0502 16.5522C21.7374 17.865 20.9999 19.6454 20.9999 21.502C20.9999 23.3585 21.7374 25.1389 23.0502 26.4517C24.3629 27.7645 26.1434 28.502 27.9999 28.502Z" stroke="#C4C8CF" stroke-width="3.5" stroke-linecap="round" stroke-linejoin="round"/>
<path d="M27.9999 33.166C21.7699 33.166 9.33325 36.2693 9.33325 42.4993L10.4999 44.8327L27.9999 51.8327L45.4999 44.8327L46.6666 42.4993C46.6666 36.2693 34.2299 33.166 27.9999 33.166Z" fill="#C4C8CF"/>
</svg>
