<svg width="24" height="24" viewBox="0 0 24 24" fill="none" xmlns="http://www.w3.org/2000/svg">
<path d="M5 12H7M7 9H17C18.87 9 19.804 9 20.5 9.402C20.956 9.66529 21.3347 10.044 21.598 10.5C22 11.196 22 12.13 22 14C22 15.87 22 16.804 21.598 17.5C21.3347 17.956 20.956 18.3347 20.5 18.598C19.804 19 18.87 19 17 19H16.606C15.919 19 15.576 19 15.255 18.929C14.8248 18.8335 14.4209 18.6443 14.072 18.375C13.812 18.173 13.592 17.91 13.152 17.382C12.802 16.962 12.626 16.752 12.425 16.657C12.292 16.5946 12.1469 16.5622 12 16.5622C11.8531 16.5622 11.708 16.5946 11.575 16.657C11.374 16.751 11.199 16.961 10.848 17.382C10.408 17.91 10.188 18.173 9.928 18.375C9.57915 18.6443 9.17524 18.8335 8.745 18.929C8.425 19 8.081 19 7.394 19H7C5.13 19 4.196 19 3.5 18.598C3.04398 18.3347 2.66529 17.956 2.402 17.5C2 16.804 2 15.87 2 14C2 12.13 2 11.196 2.402 10.5C2.66529 10.044 3.04398 9.66529 3.5 9.402C4.196 9 5.13 9 7 9Z" stroke="#44A248" stroke-width="2" stroke-linecap="round" stroke-linejoin="round"/>
<path d="M22 13V11.828C22 10.675 22 10.098 21.847 9.56C21.7626 9.26476 21.6445 8.98022 21.495 8.712C21.224 8.224 20.815 7.816 20 7C19.185 6.184 18.776 5.776 18.288 5.505C18.0198 5.35551 17.7352 5.2374 17.44 5.153C16.902 5 16.325 5 15.172 5H8.828C7.675 5 7.098 5 6.56 5.153C6.26476 5.2374 5.98022 5.35551 5.712 5.505C5.224 5.776 4.816 6.185 4 7C3.184 7.815 2.776 8.224 2.505 8.712C2.35551 8.98022 2.2374 9.26476 2.153 9.56C2 10.098 2 10.675 2 11.828V13" stroke="#44A248" stroke-width="2" stroke-linecap="round" stroke-linejoin="round"/>
</svg>
