<svg width="24" height="24" viewBox="0 0 24 24" fill="none" xmlns="http://www.w3.org/2000/svg">
<path d="M8.93042 2.54745C6.90867 3.24884 5.16512 4.58011 3.95586 6.34571C2.74661 8.1113 2.13539 10.2182 2.21198 12.3568C2.28857 14.4955 3.04894 16.5532 4.3814 18.2278C5.71386 19.9024 7.54817 21.1055 9.61491 21.6604C11.2905 22.0928 13.0459 22.1118 14.7305 21.7158C16.2565 21.373 17.6673 20.6398 18.8248 19.5879C20.0295 18.4597 20.904 17.0244 21.3541 15.4365C21.8434 13.7096 21.9305 11.8936 21.6086 10.1278H12.1996V14.0311H17.6487C17.5398 14.6536 17.3064 15.2478 16.9625 15.778C16.6186 16.3082 16.1713 16.7636 15.6473 17.117C14.9819 17.5571 14.2319 17.8533 13.4453 17.9865C12.6563 18.1332 11.8471 18.1332 11.0582 17.9865C10.2586 17.8211 9.5022 17.4911 8.83715 17.0174C7.76874 16.261 6.96652 15.1866 6.54495 13.9473C6.11626 12.6848 6.11626 11.316 6.54495 10.0535C6.84503 9.16857 7.34111 8.36282 7.99615 7.69642C8.74576 6.9198 9.69479 6.36467 10.7391 6.09193C11.7835 5.81919 12.8827 5.83939 13.9163 6.1503C14.7238 6.39817 15.4621 6.83125 16.0726 7.41502C16.687 6.80374 17.3004 6.19088 17.9127 5.57644C18.2288 5.24603 18.5734 4.93144 18.8849 4.59312C17.9531 3.72597 16.8593 3.05121 15.6663 2.60752C13.4938 1.81864 11.1167 1.79744 8.93042 2.54745Z" fill="#C4C8CF"/>
<path d="M8.92947 2.54822C11.1155 1.7977 13.4927 1.81834 15.6654 2.60671C16.8586 3.05341 17.9518 3.73142 18.8823 4.6018C18.5662 4.94011 18.2326 5.25629 17.9101 5.58511C17.2968 6.19745 16.6839 6.80767 16.0716 7.41579C15.4612 6.83202 14.7228 6.39894 13.9154 6.15107C12.8821 5.83907 11.7829 5.81771 10.7383 6.08933C9.69368 6.36095 8.74406 6.91506 7.99363 7.69086C7.33859 8.35726 6.84251 9.16302 6.54243 10.048L3.26538 7.51064C4.43837 5.18445 6.46931 3.4051 8.92947 2.54822Z" fill="#E33629"/>
<path d="M2.39621 10.0253C2.57235 9.15236 2.86478 8.30695 3.26567 7.51172L6.54272 10.0554C6.11402 11.3179 6.11402 12.6866 6.54272 13.9491C5.45089 14.7923 4.35854 15.6396 3.26567 16.4912C2.26208 14.4934 1.95601 12.2172 2.39621 10.0253Z" fill="#F8BD00"/>
<path d="M12.2004 10.127H21.6095C21.9313 11.8927 21.8443 13.7087 21.355 15.4356C20.9048 17.0236 20.0304 18.4588 18.8256 19.587C17.7681 18.7618 16.7058 17.9429 15.6482 17.1177C16.1725 16.764 16.62 16.3081 16.9639 15.7773C17.3078 15.2465 17.541 14.6517 17.6495 14.0286H12.2004C12.1988 12.7291 12.2004 11.428 12.2004 10.127Z" fill="#587DBD"/>
<path d="M3.26367 16.4893C4.35655 15.6462 5.4489 14.7988 6.54072 13.9473C6.96313 15.187 7.7665 16.2615 8.83608 17.0174C9.5032 17.4889 10.2612 17.8162 11.0619 17.9785C11.8508 18.1252 12.66 18.1252 13.4489 17.9785C14.2355 17.8454 14.9856 17.5492 15.651 17.1091C16.7086 17.9343 17.7709 18.7532 18.8285 19.5784C17.6711 20.6308 16.2603 21.3646 14.7341 21.7079C13.0496 22.1039 11.2941 22.0849 9.61859 21.6525C8.29338 21.2987 7.05556 20.6749 5.98269 19.8203C4.84712 18.9187 3.91964 17.7825 3.26367 16.4893Z" fill="#319F43"/>
</svg>
