<svg width="168" height="24" viewBox="0 0 168 24" fill="none" xmlns="http://www.w3.org/2000/svg">
<path fill-rule="evenodd" clip-rule="evenodd" d="M96.6829 3.18905C95.1165 4.98557 94.339 7.8806 94.339 11.8741C94.339 15.8448 95.1165 18.7741 96.6829 20.6622C98.2717 22.5502 100.83 23.5 104.379 23.5C107.951 23.5 110.532 22.5388 112.11 20.6279C113.721 18.7169 114.521 15.7761 114.521 11.8055C114.521 7.81194 113.743 4.92836 112.177 3.15473C110.645 1.38109 108.064 0.5 104.447 0.5C100.852 0.5 98.2605 1.39254 96.6829 3.18905ZM104.447 6.66766C105.461 6.66766 106.126 6.97662 106.43 7.60597C106.734 8.20099 106.892 9.48259 106.892 11.4507V13.0985C106.892 15.0896 106.757 16.3597 106.498 16.9433C106.239 17.5154 105.585 17.8015 104.548 17.8015C103.512 17.8015 102.836 17.504 102.531 16.909C102.227 16.3139 102.069 15.0095 102.069 12.9955V11.405C102.069 9.44826 102.216 8.16667 102.497 7.5602C102.779 6.96517 103.433 6.66766 104.447 6.66766ZM33.5677 0.854726L29.0265 23.1338H20.5863L18.7721 14.094L17.2057 23.1338H8.7656L5.4301 8.05224L9.00224 6.70199H5.37376H1.74529L0.539551 0.866169L10.7939 0.854726L12.935 11.0846L15.538 0.854726H22.2428L24.9585 11.0846L26.8516 0.854726H33.5677ZM51.6988 23.1453H44.2503L43.5404 19.701H39.6076L38.8639 23.1453H31.7309L36.3059 0.854726H47.1238L51.6988 23.1453ZM43.0107 15.0667L41.5909 7.60597L40.1373 15.0667H43.0107ZM70.4835 11.4851C70.9568 10.6269 71.1934 9.47114 71.1934 8.0408C71.1934 5.5806 70.5398 3.77264 69.2439 2.62836C67.9368 1.44975 65.9084 0.854726 63.1702 0.854726L50.1663 0.866169L51.372 6.70199H57.75L53.7722 8.05224V23.1453H61.0404V15.4672H61.6039L63.8012 23.1453H71.6441L68.3425 13.705C69.3228 13.0642 70.0327 12.3204 70.4835 11.4851ZM62.9223 10.6154C62.7082 10.9244 62.3363 11.0846 61.7842 11.0846H60.8939V6.74776H61.818C62.3138 6.74776 62.6856 6.90796 62.9223 7.21692C63.1589 7.52587 63.2716 8.08657 63.2716 8.899C63.2716 9.71144 63.1589 10.2836 62.9223 10.6154ZM84.9298 16.1766H83.4085V23.1338H75.96V8.02935L80.0505 6.70199H73.6725L72.4667 0.866169L84.5354 0.854726C84.7495 0.854726 84.9523 0.854726 85.1664 0.866169H85.3242C87.8371 0.969154 89.6851 1.56418 90.8908 2.6398C92.2205 3.84129 92.8741 5.80945 92.8741 8.55572C92.8741 11.302 92.2318 13.2701 90.9585 14.4373C89.6851 15.6045 87.6793 16.1766 84.9298 16.1766ZM83.262 6.72488H84.8847C85.0425 6.81642 85.1551 6.94229 85.2453 7.10249C85.4819 7.4801 85.5946 8.13234 85.5946 9.03632C85.5946 9.9403 85.4932 10.5925 85.2791 10.9701C85.0875 11.3478 84.7269 11.5423 84.1748 11.5423H83.2508V6.72488H83.262ZM124.257 23.1453H116.775V0.854726H124.257V6.9194H118.521L124.257 8.56716V23.1453ZM139.21 23.1453H147.11V8.05224L142.715 6.9194H152.372V23.1338H159.933V6.9194H165.06L167.461 0.854726H139.65V9.92886L135.255 0.854726H127.085V23.1338H134.489V14.3458L139.21 23.1453Z" fill="white"/>
</svg>
