<svg width="24" height="24" viewBox="0 0 24 24" fill="none" xmlns="http://www.w3.org/2000/svg">
<g clip-path="url(#clip0_3021_1676)">
<path d="M23.953 6.27931C24.1179 5.72239 23.953 5.3125 23.16 5.3125H20.5358C19.8675 5.3125 19.56 5.66447 19.3952 6.05655C19.3952 6.05655 18.0586 9.31342 16.1695 11.4253C15.5591 12.0356 15.2784 12.2317 14.9443 12.2317C14.7794 12.2317 14.5255 12.0356 14.5255 11.4787V6.27931C14.5255 5.61101 14.3384 5.3125 13.7859 5.3125H9.66022C9.24142 5.3125 8.99192 5.62438 8.99192 5.91397C8.99192 6.54664 9.93646 6.69366 10.0345 8.47581V12.3431C10.0345 13.1896 9.88299 13.3455 9.54884 13.3455C8.65777 13.3455 6.49246 10.0753 5.20932 6.33278C4.95091 5.60655 4.69695 5.3125 4.02419 5.3125H1.39998C0.651482 5.3125 0.5 5.66447 0.5 6.05655C0.5 6.75158 1.39107 10.2045 4.64794 14.7668C6.8177 17.8811 9.87408 19.5697 12.6542 19.5697C14.325 19.5697 14.5299 19.1954 14.5299 18.5494C14.5299 15.5732 14.3785 15.2925 15.2161 15.2925C15.6037 15.2925 16.272 15.4885 17.8314 16.99C19.6135 18.7722 19.9076 19.5697 20.9056 19.5697H23.5298C24.2783 19.5697 24.657 19.1954 24.4387 18.4558C23.9397 16.9009 20.567 13.7019 20.4155 13.4881C20.0279 12.9891 20.1392 12.7663 20.4155 12.3208C20.4199 12.3163 23.6233 7.8075 23.953 6.27931Z" fill="#3970F6"/>
</g>
<defs>
<clipPath id="clip0_3021_1676">
<rect width="24" height="24" fill="white"/>
</clipPath>
</defs>
</svg>
